<svg version="1.2" xmlns="http://www.w3.org/2000/svg" viewBox="0 0 462 462" width="462" height="462"><style>.a{fill:#fff}</style><path class="a" d="m298 78.7c-18.5 1.8-43.6 6.4-65.1 11.8-44.1 11.1-75.7 25.6-107.8 49.4-17.7 13.2-49.2 44.8-63 63.3-31.8 42.7-57.5 98.6-59.8 130.5-0.5 7.2-0.3 8.5 1.7 11.7 4.1 6.7 10.7 8.2 20.3 4.7 2.8-1.1 9.7-3.8 15.1-6.1 5.5-2.3 17-6.1 25.5-8.4l15.6-4.1h19c30.9 0.1 39 2.7 67.2 21.6 9.3 6.2 20.9 13.2 25.8 15.5 21.3 10.1 57.6 15.6 104.5 15.7 50.9 0.2 87.4-6.6 99.8-18.6 6.3-6.1 7.9-14.4 4.2-21.8-4.1-8-11.7-10.5-38-12.4-10.7-0.8-23.1-1.9-27.5-2.5-24-3.3-38.4-11.1-48.7-26.3-6.9-10.2-8.1-14.4-8-28.6 0.2-15.6 1.4-21.7 6.2-30.8l3.8-7.1-4.6-0.7c-10.3-1.5-16.5-6.1-24.7-18.2l-4.4-6.6-1.8 3.3c-1 1.8-3.7 5.8-6 9-6.7 9.4-17.6 13.3-28.1 10.1-5.2-1.6-12.4-7.4-17.1-14-2.5-3.4-5-6.1-5.6-6.1-2.1 0-6.2 3.8-12.6 11.6-8.6 10.5-13.7 12.6-20.6 8.4-8-4.9-8.3-12.1-0.9-23 6.3-9.2 14.3-16.5 22-20.1 14.5-6.8 25.5-4.2 34.2 7.9 2.2 3 4.4 6.1 5.1 7 1 1.5 2.2 0.6 9.4-7.1 4.5-4.8 9.9-9.7 12.1-10.8 13-6.6 28.6-0.7 37.3 14 1.7 2.8 3.3 5.1 3.7 5.1 0.4 0 2.3-2.7 4.3-6 4.7-7.7 10.5-12.6 16.3-13.9 6-1.3 14-0.4 17.8 2 3.9 2.3 10.9 9.8 15.3 16.2 2.4 3.5 3.6 4.5 4.7 3.9 0.8-0.5 4.5-4.6 8.2-9.2 9.8-12.4 16.1-15.8 26.9-14.7 8.7 0.9 16.5 5.8 28 17.4l10.1 10.3 4.9-1.6c7.6-2.5 12.3-5.7 19.5-13.2 8.5-8.8 14.2-20.1 16.4-32.3 2.6-14.6 0.3-23.9-9.7-38.9-17.3-25.8-50.6-42.3-95-47-8.7-0.9-47.9-1.1-55.9-0.3z"/></svg>