<svg version="1.2" xmlns="http://www.w3.org/2000/svg" viewBox="0 0 1401 307" width="1401" height="307"><style>.a{fill:#fff}</style><path class="a" d="m296 0.7c-18.5 1.8-43.6 6.4-65.1 11.8-44.1 11.1-75.7 25.6-107.8 49.4-17.7 13.2-49.2 44.8-63 63.3-31.8 42.7-57.5 98.6-59.8 130.5-0.5 7.2-0.3 8.5 1.7 11.7 4.1 6.7 10.7 8.2 20.3 4.7 2.8-1.1 9.7-3.8 15.1-6.1 5.5-2.3 17-6.1 25.5-8.4l15.6-4.1h19c30.9 0.1 39 2.7 67.2 21.6 9.3 6.2 20.9 13.2 25.8 15.5 21.3 10.1 57.6 15.6 104.5 15.7 50.9 0.2 87.4-6.6 99.8-18.6 6.3-6.1 7.9-14.4 4.2-21.8-4.1-8-11.7-10.5-38-12.4-10.7-0.8-23.1-1.9-27.5-2.5-24-3.3-38.4-11.1-48.7-26.3-6.9-10.2-8.1-14.4-8-28.6 0.2-15.6 1.4-21.7 6.2-30.8l3.8-7.1-4.6-0.7c-10.3-1.5-16.5-6.1-24.7-18.2l-4.4-6.6-1.8 3.3c-1 1.8-3.7 5.8-6 9-6.7 9.4-17.6 13.3-28.1 10.1-5.2-1.6-12.4-7.4-17.1-14-2.5-3.4-5-6.1-5.6-6.1-2.1 0-6.2 3.8-12.6 11.6-8.6 10.5-13.7 12.6-20.6 8.4-8-4.9-8.3-12.1-0.9-23 6.3-9.2 14.3-16.5 22-20.1 14.5-6.8 25.5-4.2 34.2 7.9 2.2 3 4.4 6.1 5.1 7 1 1.5 2.2 0.6 9.4-7.1 4.5-4.8 9.9-9.7 12.1-10.8 13-6.6 28.6-0.7 37.3 14 1.7 2.8 3.3 5.1 3.7 5.1 0.4 0 2.3-2.7 4.3-6 4.7-7.7 10.5-12.6 16.3-13.9 6-1.3 14-0.4 17.8 2 3.9 2.3 10.9 9.8 15.3 16.2 2.4 3.5 3.6 4.5 4.7 3.9 0.8-0.5 4.5-4.6 8.2-9.2 9.8-12.4 16.1-15.8 26.9-14.7 8.7 0.9 16.5 5.8 28 17.4l10.1 10.3 4.9-1.6c7.6-2.5 12.3-5.7 19.5-13.2 8.5-8.8 14.2-20.1 16.4-32.3 2.6-14.6 0.3-23.9-9.7-38.9-17.3-25.8-50.6-42.3-95-47-8.7-0.9-47.9-1.1-55.9-0.3z"/><path class="a" d="m573 51.8q0-6.6 5.5-6.6h54.7q5.2 0 5.2 6v156.5q0 4 3.5 4h86.7q6.6 0 6.6 5.5v35.5q0 2.6-1.7 4.6-1.7 1.7-5.5 1.7h-147.2q-4.6 0-6.4-1.7-1.4-1.8-1.4-5.5zm239.4 60.2v138.6q0 4.6-2.3 6.7-2.3 1.7-7.2 1.7h-40.6q-4.3 0-6-1.7-1.5-1.8-1.5-5.5v-138.9q0-6.6 5.5-6.6h47q5.1 0 5.1 5.7zm0-60.8v34q0 8.4-9.5 8.4h-40.6q-4.3 0-6-1.7-1.5-2.1-1.5-5.8v-34.3q0-6.6 5.5-6.6h47q5.1 0 5.1 6zm130 94h-26.8q-3.7 0-3.7 3.7v55.3q0 7.5 4.6 11.6 4.9 3.7 15.6 3.7h12.4q2.3 0 3.7 1.7 1.4 1.8 1.4 4.1l-0.3 23q0 6.9-8.3 8.7-6.3 0.8-13 1.4-6.3 0.3-12.9 0.6-6.4 0-13 0-20.8 0-34.3-9.8-13.5-10.1-13.5-28.5v-70.4q0-5.1-4.4-5.1h-13.8q-6.9 0-6.9-6.4v-27.1q0-5.4 6.3-5.4h17q3.2 0 3.5-3.5l4.6-42.6q0.6-5.8 5.2-5.8h42.3q5.5 0 5.5 6.3v42.1q0 3.2 3.2 3.2h26.5q6.3 0 6.3 5.4v27.4q0 6.4-7.2 6.4zm94.8 116.7q-23.7 0-41.8-10.1-17.9-10.1-28.3-27.7-10-17.9-10-40.6 0-24.2 10.6-42.1 10.7-18.1 28.8-27.9 18.2-10.1 40.9-10.1 24.3 0 42.1 10.4 18.2 10.3 28.3 28.5 10 17.8 10 41.2 0 22.7-10.3 40.6-10.1 17.6-28.3 27.7-18.1 10.1-42 10.1zm0.2-36.9q7.8 0 12.7-4.3 4.9-4.7 7.2-14.2 2.3-9.5 2.3-24.2 0-15.2-2.3-24.7-2.3-9.6-7.2-13.9-4.9-4.6-12.7-4.6-7.4 0-12.6 4.6-4.9 4.3-7.2 13.9-2.3 9.5-2.3 24.7 0 15 2.3 24.5 2.3 9.2 7.2 13.9 5.2 4.3 12.6 4.3zm105.9 34q-4.3 0-6-1.7-1.5-1.8-1.5-5.5v-138.9q0-6.6 5.5-6.6h44.9q5.2 0 5.2 5.7v16.2q0 2 1.8 2.6 1.7 0.2 3.1-1.8 4.6-7.2 11.8-12.9 7.2-5.8 15.3-9.3 8.1-3.4 14.7-3.4 10.7 0 10.7 5.7v43.8q0 6.1-5.8 4.7-6.6-1.8-13.8-2.4-6.9-0.8-11-0.8-4.6 0-9.2 1.7-4.3 1.5-8.1 4.3-3.4 2.9-5.4 6.4-2.1 3.4-2.1 7.2v76.6q0 8.4-9.5 8.4zm195.9-12.1q-7.8 6.3-18.1 10.6-10.1 4.4-23.7 4.4-21.6 0-34-12.1-12.1-12.1-12.1-30 0-17 10.7-29.7 10.9-12.7 30.8-19.6 19.9-7.2 47-7.2h2q1.2 0 2.6-0.6 1.7-0.8 1.7-3.4v-4.9q0-8.1-4.3-12.4-4-4.3-12.7-4.3-6 0-12.4 2.8-6.3 2.6-10 10.7-1.2 2.3-2.6 3.2-1.2 0.6-5.2 0l-37.8-7.5q-2-0.6-3.1-2-0.9-1.8 1.1-7.2 6.6-18.5 25.4-26.3 19-8 47.2-8 26.8 0 41.8 6 15 6.1 21.1 16.7 6.3 10.7 6.3 24.8v100.3q0 4.3-1.5 6.1-1.1 1.7-5.1 1.7h-39.5q-3.8 0-5.5-2.9-1.4-3.2-2-7.2l-0.3-2q-0.9-5.8-7.8 0zm6.9-52.5q0-5.2-4.3-5.2h-1.1q-3.5 0-9.3 1.5-5.4 1.1-10.9 4-5.5 2.6-9.5 6.9-3.8 4.4-3.8 10.4 0 6.1 4.4 9.8 4.3 3.8 12.1 3.8 5.7 0 9.5-1.8 4-1.7 6.3-3.7 2.6-2.3 4.6-4.6 2-2.6 2-5.8z"/></svg>