<svg version="1.2" xmlns="http://www.w3.org/2000/svg" viewBox="0 0 790 171" width="790" height="171"><style>.a{fill:#1ebe64}.b{fill:#fff}</style><path class="a" d="m165 0.7c-10.2 1-24.2 3.6-36.2 6.6-24.5 6.1-42.1 14.2-59.9 27.4-9.9 7.4-27.4 25-35.1 35.3-17.7 23.7-32 54.8-33.2 72.5-0.3 4.1-0.2 4.8 0.9 6.6 2.3 3.7 6 4.5 11.3 2.6 1.6-0.6 5.4-2.1 8.4-3.4 3.1-1.3 9.5-3.4 14.2-4.7l8.7-2.3h10.5c17.2 0.1 21.7 1.5 37.4 12 5.2 3.5 11.6 7.4 14.4 8.7 11.8 5.6 32 8.6 58.1 8.7 28.3 0.1 48.6-3.7 55.5-10.4 3.5-3.3 4.4-8 2.3-12.1-2.2-4.4-6.5-5.8-21.1-6.9-5.9-0.4-12.8-1-15.3-1.4-13.3-1.8-21.4-6.1-27.1-14.6-3.8-5.7-4.5-8-4.4-15.9 0.1-8.7 0.7-12.1 3.4-17.1l2.1-4-2.5-0.4c-5.8-0.8-9.2-3.4-13.8-10.1l-2.4-3.7-1 1.9c-0.6 1-2.1 3.2-3.4 5-3.7 5.2-9.7 7.4-15.6 5.6-2.9-0.9-6.9-4.1-9.5-7.8-1.4-1.9-2.8-3.4-3.1-3.4-1.2 0-3.5 2.1-7 6.5-4.8 5.8-7.6 7-11.5 4.6-4.4-2.7-4.6-6.7-0.5-12.8 3.5-5.1 8-9.1 12.3-11.1 8-3.8 14.1-2.4 19 4.4 1.2 1.6 2.4 3.3 2.8 3.8 0.6 0.9 1.2 0.4 5.2-3.9 2.5-2.7 5.6-5.4 6.8-6 7.2-3.7 15.9-0.4 20.7 7.8 1 1.5 1.9 2.8 2.1 2.8 0.2 0 1.3-1.5 2.4-3.3 2.6-4.3 5.8-7 9-7.8 3.4-0.7 7.8-0.2 9.9 1.2 2.2 1.2 6.1 5.4 8.6 9 1.3 1.9 2 2.5 2.6 2.1 0.4-0.2 2.5-2.5 4.5-5.1 5.5-6.9 9-8.8 15-8.2 4.8 0.5 9.2 3.3 15.6 9.7l5.6 5.8 2.7-0.9c4.2-1.4 6.9-3.2 10.9-7.4 4.7-4.9 7.9-11.2 9.1-17.9 1.4-8.2 0.1-13.3-5.4-21.7-9.6-14.3-28.2-23.5-52.9-26.1-4.8-0.5-26.6-0.6-31.1-0.2z"/><path class="b" d="m333.7 149h79v-21.5h-52.9v-101.9h-26.1zm95.5 0h25.7v-92.6h-25.7zm12.9-104.5c7.7 0 14-5.9 14-13.1 0-7.1-6.3-12.9-14-12.9-7.5 0-13.8 5.8-13.8 12.9 0 7.2 6.3 13.1 13.8 13.1zm82.4 11.9h-17.4v-22.2h-25.7v22.2h-12.7v19.3h12.7v48.2c-0.1 18.1 12.2 27.1 30.9 26.3 6.6-0.2 11.3-1.5 13.9-2.4l-4.1-19.1c-1.2 0.3-3.9 0.9-6.3 0.9-5.2 0-8.7-2-8.7-9.1v-44.8h17.4zm57.6 94.4c28.1 0 45.5-19.3 45.5-47.8 0-28.7-17.4-47.8-45.5-47.8-28.1 0-45.6 19.1-45.6 47.8 0 28.5 17.5 47.8 45.6 47.8zm0.1-19.9c-13 0-19.6-11.9-19.6-28 0-16.2 6.6-28.1 19.6-28.1 12.7 0 19.3 11.9 19.3 28.1 0 16.1-6.6 28-19.3 28zm62 18.1h25.7v-52.4c0-11.4 8.3-19.2 19.7-19.2 3.5 0 8.4 0.6 10.8 1.3v-22.7c-2.3-0.6-5.5-0.9-8.1-0.9-10.3 0-18.8 6-22.2 17.4h-1v-16.1h-24.9zm93.4 1.7c13.7 0 22.6-5.9 27.1-14.6h0.7v12.9h24.4v-62.5c0-22-18.7-31.3-39.3-31.3-22.2 0-36.8 10.6-40.3 27.5l23.7 1.9c1.8-6.1 7.2-10.7 16.5-10.7 8.7 0 13.7 4.4 13.7 12v0.4c0 6-6.3 6.8-22.4 8.3-18.3 1.7-34.8 7.9-34.8 28.5 0 18.4 13.1 27.6 30.7 27.6zm7.4-17.7c-7.9 0-13.6-3.7-13.6-10.7 0-7.2 6-10.8 15-12.1 5.7-0.8 14.8-2.1 17.9-4.1v9.8c0 9.7-8 17.1-19.3 17.1z"/></svg>